<svg width="278" height="156" viewBox="0 0 278 156" fill="none" xmlns="http://www.w3.org/2000/svg">
<g filter="url(#filter0_d_1602_42482)">
<rect x="41" y="41" width="196" height="74" rx="8" fill="#9569FD"/>
</g>
<path opacity="0.2" fill-rule="evenodd" clip-rule="evenodd" d="M221.841 115H225C229.418 115 233 111.418 233 107V49C233 44.5817 229.418 41 225 41H183.799C176.927 58.0695 183.908 62.0719 191.826 66.6121C198.52 70.4503 205.885 74.6729 206.117 87.5C206.51 109.227 216.162 114.835 221.37 115H221.841Z" fill="#FDBB64"/>
<path fill-rule="evenodd" clip-rule="evenodd" d="M225.841 115H229C233.418 115 237 111.418 237 107V49C237 44.5817 233.418 41 229 41H187.799C180.927 58.0695 187.908 62.0719 195.826 66.6121C202.52 70.4503 209.885 74.6729 210.117 87.5C210.51 109.227 220.162 114.835 225.37 115H225.841Z" fill="#FDBB64"/>
<defs>
<filter id="filter0_d_1602_42482" x="0" y="0" width="278" height="156" filterUnits="userSpaceOnUse" color-interpolation-filters="sRGB">
<feFlood flood-opacity="0" result="BackgroundImageFix"/>
<feColorMatrix in="SourceAlpha" type="matrix" values="0 0 0 0 0 0 0 0 0 0 0 0 0 0 0 0 0 0 127 0" result="hardAlpha"/>
<feOffset/>
<feGaussianBlur stdDeviation="20.5"/>
<feColorMatrix type="matrix" values="0 0 0 0 0 0 0 0 0 0 0 0 0 0 0 0 0 0 0.03 0"/>
<feBlend mode="normal" in2="BackgroundImageFix" result="effect1_dropShadow_1602_42482"/>
<feBlend mode="normal" in="SourceGraphic" in2="effect1_dropShadow_1602_42482" result="shape"/>
</filter>
</defs>
</svg>
