<svg width="32" height="32" viewBox="0 0 32 32" fill="none" xmlns="http://www.w3.org/2000/svg">
<path d="M31.4271 0.17041H12.8261C12.489 0.17041 12.2532 0.442719 12.2532 0.748971V7.28365C12.3207 7.3176 12.3879 7.38573 12.4218 7.41968C12.6914 7.62385 12.9271 7.72594 13.1968 7.82803H13.264C13.264 7.82803 13.3314 7.86198 13.4325 7.86198L13.4327 1.36194H30.8207V15.0099H28.4955V14.023C28.4955 13.5465 28.1248 13.1721 27.653 13.1721H24.6876C24.2158 13.1721 23.8452 13.5465 23.8452 14.023V15.0099H13.3989V11.7424C13.1629 11.7424 12.8936 11.7085 12.6576 11.6743C12.5565 11.6403 12.388 11.6403 12.2533 11.5722V15.6224C12.2533 15.9628 12.5229 16.201 12.8261 16.201H31.4271C31.7642 16.201 32 15.9287 32 15.6224V0.749207C32 0.442949 31.7304 0.170647 31.4271 0.170647L31.4271 0.17041Z" fill="white"/>
<path d="M10.7706 9.90438C11.2423 10.2106 11.7815 10.5169 12.3543 10.6531C12.489 10.6871 12.6576 10.7213 12.7925 10.7552C14.5784 11.0615 15.8926 10.449 16.3308 10.3127C16.7689 10.1425 18.1503 9.63207 17.6113 8.67909C17.4092 8.3047 17.106 8.16867 16.7689 8.20262C16.3646 8.27076 15.859 8.64515 15.1177 8.78118C13.8035 9.05349 12.8936 8.67909 12.8936 8.67909C12.5565 8.57701 12.2197 8.40679 11.8826 8.16867C11.5455 7.93031 11.1748 7.62406 10.7706 7.3178C10.3663 7.01154 9.89449 6.63717 9.32169 6.3988C8.98462 6.22858 8.58035 6.12649 8.20967 6.09254C7.67046 6.3988 7.06402 6.56902 6.39013 6.56902C5.71624 6.56902 5.10956 6.3988 4.5367 6.05859C4.50309 6.05859 4.43563 6.05859 4.40202 6.09254C3.79558 6.19463 3.18891 6.3988 2.58247 6.80739C2.27925 7.01157 1.94216 7.4199 1.77367 7.69224C1.57152 8.06663 1.47045 8.57708 1.40299 8.74726C1.36937 8.95143 1.13338 10.0406 1.13338 10.0406L0.0211182 15.8265C-0.0799563 16.269 0.189654 16.7455 0.661431 16.8476C1.13318 16.9497 1.60496 16.6774 1.70599 16.2009L3.12129 10.5169L3.52559 8.91725L2.88527 16.507C2.85166 17.0174 3.12127 17.4939 3.52559 17.7323C3.22236 22.0887 2.91915 26.4452 2.68315 30.8016C2.64954 31.3802 3.08745 31.9248 3.66026 31.9929C4.26669 32.0611 4.83979 31.6185 4.907 31.0061C5.37876 26.9901 5.78308 22.9738 6.22121 18.9577H6.65935L7.97379 30.938C8.04125 31.5165 8.54662 31.993 9.15332 31.9249C9.75976 31.8909 10.2318 31.3463 10.1979 30.7335L9.32181 17.6642C9.75995 17.4258 10.0296 16.9493 9.96212 16.4389L9.35545 8.81514C9.42291 8.84909 9.49014 8.91723 9.5576 8.95118C9.89467 9.25767 10.2989 9.56393 10.7707 9.90439L10.7706 9.90438Z" fill="white"/>
<path d="M9.25413 2.82489C9.25413 4.38514 8.00196 5.64977 6.45723 5.64977C4.91268 5.64977 3.66034 4.38508 3.66034 2.82489C3.66034 1.2647 4.91268 0 6.45723 0C8.00202 0 9.25413 1.2647 9.25413 2.82489Z" fill="white"/>
</svg>
